# xmcd CD database file
#
# Track frame offsets:
#	150
#	18312
#	37900
#	56132
#	76300
#	95422
#	110800
#	128930
#	150527
#	167632
#	186657
#	206432
#
# Disc length: 2987 seconds
#
# Revision: 4
# Processed by: cddbd v1.5.2PL0 Copyright (c) Steve Scherf et al.
# Submitted via: CDex 1.70beta3
#
DISCID=9e0ba90c
DTITLE=DREAMS COME TRUE - DREAMANIA -DREAMS COME TRUE -smooth groove collection- [CD2]
DYEAR=2004
DGENRE=Pop
TTITLE0=Eyes to me
TTITLE1=うれしい！たのしい！大好き！（‘EVERLASTING’ VERSION）
TTITLE2=朝がまた来る
TTITLE3=SNOW DANCE
TTITLE4=なんて恋したんだろ
TTITLE5=いつのまに
TTITLE6=ごめんねDJ
TTITLE7=そうだよ ～album mix～
TTITLE8=夢で逢ってるから
TTITLE9=あはは
TTITLE10=go for it！
TTITLE11=you go girl！
EXTD=YEAR: 2004
EXTT0=
EXTT1=
EXTT2=
EXTT3=
EXTT4=
EXTT5=
EXTT6=
EXTT7=
EXTT8=
EXTT9=
EXTT10=
EXTT11=
PLAYORDER=
